<svg width="40" height="40" viewBox="0 0 40 40" fill="none" xmlns="http://www.w3.org/2000/svg">
<path d="M19.75 20H11.375M19.75 20H28.125M19.75 20V36M11.375 20H4C3.44772 20 3 20.4477 3 21V35C3 35.5523 3.44772 36 4 36H19.75M11.375 20V5C11.375 4.44772 11.8227 4 12.375 4H27.125C27.6773 4 28.125 4.44772 28.125 5V20M28.125 20H35.5C36.0523 20 36.5 20.4477 36.5 21V35C36.5 35.5523 36.0523 36 35.5 36H19.75M19.75 15V8.5M19.75 8.5L22 11M19.75 8.5L17.5 11" stroke="white" stroke-width="2" stroke-linecap="round" stroke-linejoin="round"/>
<path d="M14.5 28.25H8M8 28.25L10.5 26M8 28.25L10.5 30.5" stroke="white" stroke-width="2" stroke-linecap="round" stroke-linejoin="round"/>
<path d="M25 28.25H31.5M31.5 28.25L29 30.5M31.5 28.25L29 26" stroke="white" stroke-width="2" stroke-linecap="round" stroke-linejoin="round"/>
</svg>
