<svg width="32" height="32" viewBox="0 0 32 32" fill="none" xmlns="http://www.w3.org/2000/svg">
<g clip-path="url(#clip0_165_2)">
<path d="M7 9.5V14.5M11.5 9.5V14.5M8 18H10.5M14.5 7V20.5C14.5 21.0523 14.0523 21.5 13.5 21.5H5C4.44772 21.5 4 21.0523 4 20.5V7C4 6.44772 4.44772 6 5 6H13.5C14.0523 6 14.5 6.44772 14.5 7Z" stroke="white" stroke-linecap="round"/>
<path d="M27.5 14.285C27.5 17.7994 22.8971 18.1017 20.9032 18.0678C20.3894 18.0591 20 17.6319 20 17.1181C20 16.6472 20 16.2032 20 15.7804M27.5 14.285C27.5 10.7707 22.8971 10.4684 20.9032 10.5023C20.3894 10.511 20 10.9381 20 11.452C20 11.8957 20 12.3375 20 12.7897M27.5 14.285C27.5 14.285 30.3871 15.1089 31.5 16.5C33.5 19 31.9447 20.5862 33.5 22.5093C34.8268 24.15 38 25.5 38 25.5M20 12.7897H17M20 12.7897C20 13.7095 20 14.6721 20 15.7804M20 15.7804H17" stroke="white" stroke-linecap="round"/>
</g>
<defs>
<clipPath id="clip0_165_2">
<rect width="32" height="32" fill="white"/>
</clipPath>
</defs>
</svg>
